<?xml version="1.0" standalone="no"?>
<!DOCTYPE svg PUBLIC "-//W3C//DTD SVG 20010904//EN"
 "http://www.w3.org/TR/2001/REC-SVG-20010904/DTD/svg10.dtd">
<svg version="1.0" xmlns="http://www.w3.org/2000/svg"
 width="600.000000pt" height="600.000000pt" viewBox="0 0 600.000000 600.000000"
 preserveAspectRatio="xMidYMid meet">

<g transform="translate(0.000000,600.000000) scale(0.100000,-0.100000)"
fill="#000000" stroke="none">
<path d="M1843 5803 c15 -2 39 -2 55 0 15 2 2 4 -28 4 -30 0 -43 -2 -27 -4z"/>
<path d="M4103 5773 c16 -3 25 -9 21 -15 -4 -7 -2 -8 4 -4 22 14 12 26 -20 25
-31 -2 -31 -2 -5 -6z"/>
<path d="M4137 5723 c-2 -5 0 -19 4 -33 7 -23 7 -22 6 8 -1 33 -3 37 -10 25z"/>
<path d="M1812 5690 c0 -19 2 -27 5 -17 2 9 2 25 0 35 -3 9 -5 1 -5 -18z"/>
<path d="M4153 5610 c0 -25 2 -35 4 -22 2 12 2 32 0 45 -2 12 -4 2 -4 -23z"/>
<path d="M2857 5574 c-16 -8 -25 -20 -21 -26 4 -7 3 -8 -4 -4 -15 9 -122 -52
-122 -70 0 -17 37 -37 52 -28 6 4 8 3 5 -4 -8 -12 114 -92 142 -92 75 0 67 37
-20 91 -39 24 -74 43 -78 42 -4 -1 -5 13 -2 30 4 26 6 28 9 9 2 -12 8 -20 13
-16 5 3 9 2 8 -3 -4 -21 4 -22 41 -3 25 13 38 25 34 32 -5 7 -3 8 5 4 7 -5 21
0 32 10 41 37 -34 60 -94 28z m71 -6 c-2 -7 3 -12 10 -10 8 1 11 -2 7 -8 -5
-8 -11 -8 -19 -1 -7 6 -17 7 -22 3 -4 -4 -2 1 5 11 16 20 22 22 19 5z m-53
-38 c-11 -5 -14 -9 -7 -9 15 -1 6 -21 -9 -21 -6 0 -7 5 -4 10 3 6 -2 10 -12
11 -16 0 -16 1 2 9 11 5 27 9 35 9 9 0 8 -4 -5 -9z"/>
<path d="M3020 5575 c-16 -20 -8 -29 57 -66 71 -41 93 -63 92 -91 -1 -22 -1
-22 -8 2 -4 14 -13 24 -20 22 -7 -1 -10 2 -6 8 9 14 -1 13 -35 -5 -36 -19 -39
-28 -5 -15 14 5 24 6 24 2 -3 -19 2 -25 11 -12 5 8 12 11 17 7 11 -12 -19 -27
-33 -16 -16 13 -73 4 -92 -14 -22 -22 0 -47 42 -47 33 1 70 22 59 34 -4 4 -1
5 7 2 16 -6 104 47 94 56 -3 3 3 5 13 5 12 -1 19 6 21 22 3 19 0 22 -13 18 -9
-4 -14 -3 -11 2 8 13 -146 101 -176 101 -14 0 -31 -7 -38 -15z m84 -204 c-8
-8 -64 -9 -60 -2 2 3 18 6 35 6 16 1 28 -2 25 -4z"/>
<path d="M2948 5497 l-45 -52 40 -28 c21 -16 40 -27 41 -25 1 2 21 27 45 56
24 29 42 54 40 55 -2 1 -18 12 -36 25 -18 12 -34 22 -36 22 -2 0 -24 -24 -49
-53z"/>
<path d="M4157 5537 c-3 -8 -1 -20 4 -28 6 -10 9 -7 9 14 0 29 -5 35 -13 14z"/>
<path d="M4172 5430 c0 -14 2 -19 5 -12 2 6 2 18 0 25 -3 6 -5 1 -5 -13z"/>
<path d="M4182 5360 c0 -19 2 -27 5 -17 2 9 2 25 0 35 -3 9 -5 1 -5 -18z"/>
<path d="M2563 5293 c-22 -8 -14 -23 12 -23 14 0 25 4 25 9 0 11 -21 19 -37
14z"/>
<path d="M2980 5260 c0 -28 -2 -30 -40 -30 -55 0 -100 -24 -100 -54 0 -38 35
-61 95 -61 78 0 95 19 95 107 0 66 -1 68 -25 68 -21 0 -25 -5 -25 -30z m-5
-84 c0 -10 -7 -23 -16 -29 -23 -15 -69 0 -69 22 0 26 10 32 50 29 27 -2 35 -7
35 -22z"/>
<path d="M2556 5232 c-3 -3 -6 -31 -6 -63 0 -48 3 -57 18 -55 25 2 32 15 32
67 0 38 -4 48 -19 52 -11 3 -22 2 -25 -1z"/>
<path d="M2688 5230 c-46 -9 -68 -35 -68 -80 0 -36 3 -40 24 -40 22 0 25 5 28
43 3 40 5 42 36 45 46 5 65 -13 57 -55 -5 -30 -4 -33 20 -33 23 0 25 4 25 44
0 26 -6 48 -15 56 -20 17 -74 27 -107 20z"/>
<path d="M3089 5215 c-48 -26 -47 -65 2 -90 33 -17 92 -19 120 -4 33 17 11 30
-40 23 -36 -5 -50 -2 -60 10 -12 14 -6 16 62 16 65 0 75 2 70 15 -15 40 -104
57 -154 30z m96 -24 c3 -6 -12 -10 -35 -9 -22 0 -37 4 -34 9 7 12 61 12 69 0z"/>
<path d="M3264 5198 l38 -31 -33 -28 -34 -28 29 -1 c16 0 38 7 48 17 16 14 20
15 36 1 16 -14 72 -30 72 -21 0 2 -14 16 -31 30 l-30 26 32 33 33 34 -30 0
c-18 0 -38 -8 -49 -20 l-18 -20 -22 20 c-12 11 -34 20 -50 20 l-30 0 39 -32z"/>
<path d="M4202 5160 c0 -14 2 -19 5 -12 2 6 2 18 0 25 -3 6 -5 1 -5 -13z"/>
<path d="M4213 5075 c0 -22 2 -30 4 -17 2 12 2 30 0 40 -3 9 -5 -1 -4 -23z"/>
<path d="M3070 5080 c0 -5 5 -10 11 -10 5 0 7 -6 3 -12 -4 -7 -3 -9 1 -5 15
13 14 37 -1 37 -8 0 -14 -4 -14 -10z"/>
<path d="M3115 5080 c-4 -6 -4 -14 -1 -17 3 -4 6 -1 6 5 0 15 26 16 33 2 3 -6
4 -5 3 2 -3 17 -32 22 -41 8z"/>
<path d="M3304 5079 c-12 -20 14 -35 36 -21 12 7 20 8 20 2 0 -5 8 -10 18 -10
16 1 16 1 -1 11 -10 6 -14 16 -10 22 3 7 -3 4 -14 -5 -21 -19 -43 -24 -43 -9
0 5 6 12 13 14 9 4 9 6 0 6 -6 1 -15 -4 -19 -10z"/>
<path d="M3200 5071 c0 -7 -6 -11 -15 -7 -8 3 -15 1 -15 -4 0 -16 63 -6 67 10
4 13 3 13 -6 0 -10 -13 -12 -13 -21 0 -7 12 -10 12 -10 1z"/>
<path d="M3410 5060 c-13 -8 -12 -10 3 -10 9 0 17 5 17 10 0 12 -1 12 -20 0z"/>
<path d="M4222 4980 c0 -19 2 -27 5 -17 2 9 2 25 0 35 -3 9 -5 1 -5 -18z"/>
<path d="M1722 4920 c0 -14 2 -19 5 -12 2 6 2 18 0 25 -3 6 -5 1 -5 -13z"/>
<path d="M4234 4868 c6 -56 6 -57 -21 -61 -26 -4 -25 -4 5 -6 l33 -1 -7 58
c-3 31 -9 59 -12 62 -2 3 -2 -21 2 -52z"/>
<path d="M1711 4844 c0 -11 3 -14 6 -6 3 7 2 16 -1 19 -3 4 -6 -2 -5 -13z"/>
<path d="M2733 3974 c-9 -4 -13 -29 -13 -74 l0 -68 223 -7 c122 -4 233 -6 247
-4 23 4 25 10 30 60 9 95 20 89 -164 89 -90 0 -196 2 -237 5 -41 3 -80 2 -86
-1z"/>
</g>
</svg>
